<svg xmlns="http://www.w3.org/2000/svg" viewBox="760 -190 1580 1780">
  <g>
    <path fill="#a8d424" d="m1408.3,414.67c182.52-234.91,386.05-316.75,593.86-297.7-10.49-7.77-21.16-15.1-31.98-22.09-247.6-67.1-490.7-11.57-673,223.06-186.3,239.77-177.97,494.58-45.67,722.17-176.21-230.97-204.79-521.95-13.75-767.81C1422.32,34.77,1706.38-11.73,1969.74,94.58c-255.94-164.88-600.04-110.44-791.36,134.05-195.98,250.43-159.9,608.55,76.59,815.39-59.21-190.51-24.52-400.45,153.34-629.35Z"/>
    <path fill="#a8d424" d="m2014.84,126.6c-4.17-3.27-8.38-6.46-12.61-9.6-180.89,21.05-359.54,124.69-531.39,345.87-169.29,217.87-230.31,409.15-215.47,581.5,8,6.98,16.21,13.8,24.66,20.42l-240.05,306.74c4.17,3.27,8.38,6.46,12.61,9.6,180.89-21.05,359.54-124.69,531.39-345.87,169.29-217.87,230.31-409.15,215.47-581.5-8-6.98-16.21-13.8-24.66-20.42l240.05-306.74Z"/>
    <path fill="#a8d424" d="m1646.51,1083.47c-182.52,234.91-386.05,316.75-593.86,297.7,10.49,7.77,21.16,15.1,31.98,22.09,247.6,67.1,490.7,11.57,673-223.06,186.3-239.77,177.97-494.58,45.67-722.17,176.21,230.97,204.79,521.95,13.75,767.81-184.55,237.52-468.61,284.02-731.97,177.71,255.94,164.88,600.04,110.44,791.36-134.05,195.98-250.43,159.9-608.55-76.59-815.39,59.21,190.51,24.52,400.45-153.34,629.35Z"/>
  </g>
</svg>
